<svg width="32" height="40" viewBox="0 0 32 40" fill="none" xmlns="http://www.w3.org/2000/svg">
<path opacity="0.4" d="M15.9824 33.243L2.9989 39.7282C2.01842 40.2604 0.795366 39.9051 0.246968 38.9287C0.0868082 38.6217 0.00211505 38.2805 0 37.9337V23.4176C0 24.8568 0.811467 25.7451 2.94598 26.7401L15.9824 33.243Z" fill="#FA5B5A"/>
<path d="M22.1389 0C27.5546 0 31.9471 2.1321 32 7.58674V37.9337C31.9978 38.2748 31.9131 38.6102 31.753 38.9109C31.4959 39.4013 31.0519 39.7654 30.5229 39.9195C29.994 40.0736 29.4256 40.0046 28.9482 39.7282L15.9824 33.2431L2.94598 26.7401C0.811466 25.7452 0 24.8568 0 23.4176V7.58674C0 2.1321 4.3925 0 9.79052 0H22.1389ZM23.4972 12.0819H8.44983C7.58274 12.0819 6.87982 12.7899 6.87982 13.6632C6.87982 14.5366 7.58274 15.2445 8.44983 15.2445H23.4972C24.3643 15.2445 25.0673 14.5366 25.0673 13.6632C25.0673 12.7899 24.3643 12.0819 23.4972 12.0819Z" fill="#FA5B5A"/>
</svg>
