<svg width="72" height="72" viewBox="0 0 72 72" fill="none" xmlns="http://www.w3.org/2000/svg">
<rect width="72" height="72" rx="36" fill="#FA5B5A" fill-opacity="0.2"/>
<path opacity="0.4" d="M32.1666 43.9159H19.0155C17.3511 43.9159 16 45.2433 16 46.8785C16 48.5116 17.3511 49.8412 19.0155 49.8412H32.1666C33.831 49.8412 35.1821 48.5116 35.1821 46.8785C35.1821 45.2433 33.831 43.9159 32.1666 43.9159Z" fill="#FA5B5A"/>
<path opacity="0.4" d="M56 24.7571C56 23.124 54.6489 21.7966 52.9867 21.7966H39.8356C38.1712 21.7966 36.8201 23.124 36.8201 24.7571C36.8201 26.3923 38.1712 27.7198 39.8356 27.7198H52.9867C54.6489 27.7198 56 26.3923 56 24.7571Z" fill="#FA5B5A"/>
<path d="M29.7555 24.7571C29.7555 28.4905 26.6777 31.5164 22.8777 31.5164C19.08 31.5164 16 28.4905 16 24.7571C16 21.026 19.08 18 22.8777 18C26.6777 18 29.7555 21.026 29.7555 24.7571Z" fill="#FA5B5A"/>
<path d="M56 46.7985C56 50.5296 52.9222 53.5556 49.1222 53.5556C45.3245 53.5556 42.2445 50.5296 42.2445 46.7985C42.2445 43.0652 45.3245 40.0392 49.1222 40.0392C52.9222 40.0392 56 43.0652 56 46.7985Z" fill="#FA5B5A"/>
</svg>
