<svg width="72" height="72" viewBox="0 0 72 72" fill="none" xmlns="http://www.w3.org/2000/svg">
<rect width="72" height="72" rx="36" fill="#FA5B5A" fill-opacity="0.2"/>
<path opacity="0.4" d="M56 36C56 47.048 47.046 56 36 56C24.954 56 16 47.048 16 36C16 24.956 24.954 16 36 16C47.046 16 56 24.956 56 36Z" fill="#FA5B5A"/>
<path d="M43.1474 43.629C42.8854 43.629 42.6214 43.561 42.3794 43.419L34.5274 38.735C34.0754 38.463 33.7974 37.973 33.7974 37.445V27.351C33.7974 26.523 34.4694 25.851 35.2974 25.851C36.1254 25.851 36.7974 26.523 36.7974 27.351V36.593L43.9174 40.839C44.6274 41.265 44.8614 42.185 44.4374 42.897C44.1554 43.367 43.6574 43.629 43.1474 43.629Z" fill="#FA5B5A"/>
</svg>
